<?xml version="1.0" encoding="UTF-8"?>
<svg version="1.1" xmlns="http://www.w3.org/2000/svg" width="1024" height="1024">
<path d="M0 0 C337.92 0 675.84 0 1024 0 C1024 337.92 1024 675.84 1024 1024 C686.08 1024 348.16 1024 0 1024 C0 686.08 0 348.16 0 0 Z " fill="#191718" transform="translate(0,0)"/>
<path d="M0 0 C64.09995745 -0.12099405 64.09995745 -0.12099405 90.9296875 -0.14648438 C97.06998722 -0.15235731 103.21028672 -0.15841857 109.35058594 -0.16479492 C110.12009118 -0.16558617 110.88959643 -0.16637741 111.68242002 -0.16719264 C124.07875251 -0.18021336 136.47504292 -0.2038497 148.87135053 -0.23145839 C161.60892494 -0.25958892 174.34647745 -0.27619237 187.08408165 -0.28226548 C194.93342637 -0.28636613 202.78265218 -0.29928135 210.63196027 -0.3237494 C216.6675655 -0.34159658 222.70307009 -0.34334645 228.73870468 -0.33932304 C231.20242923 -0.34014387 233.66615857 -0.34605067 236.12985611 -0.35761642 C266.51390286 -0.493177 292.96788382 5.31171029 315.19921875 27.1640625 C316.12347656 28.09992188 317.04773438 29.03578125 318 30 C318.68707031 30.68835938 319.37414062 31.37671875 320.08203125 32.0859375 C337.25628445 50.46200075 343.94736215 75.19198357 343.13183594 99.75341797 C341.92675001 120.28897475 331.9816057 138.47647159 318 153 C317.57250542 153.53057001 317.14501085 154.06114002 316.70456189 154.60778791 C314.33241239 156.54525656 312.75235505 156.372768 309.71138477 156.36914349 C308.60814202 156.37511663 307.50489927 156.38108978 306.36822492 156.38724393 C304.54285964 156.37413614 304.54285964 156.37413614 302.68061829 156.36076355 C300.74729488 156.36460846 300.74729488 156.36460846 298.77491444 156.36853105 C295.19009618 156.37525647 291.60554552 156.36321536 288.02076137 156.34819686 C284.15779227 156.33527024 280.29483889 156.33962356 276.43185425 156.34190369 C269.73656435 156.34347856 263.041362 156.33404702 256.34609413 156.31719017 C246.66581378 156.29283371 236.98557586 156.28499834 227.30526819 156.2812262 C211.60054215 156.27465644 195.89586279 156.25468107 180.19116211 156.22631836 C164.93335195 156.19879135 149.67555453 156.17758552 134.41772461 156.16479492 C133.46801515 156.16399093 132.51830569 156.16318694 131.53981715 156.16235858 C124.11272882 156.1561205 116.6856402 156.15024966 109.25855148 156.14449489 C72.83899147 156.11618163 36.4195483 156.05582966 0 156 C0 104.52 0 53.04 0 0 Z " fill="#ACBBD4" transform="translate(675,385)"/>
<path d="M0 0 C95.04 0 190.08 0 288 0 C288 20.13 288 40.26 288 61 C221.01 61 154.02 61 85 61 C85 70.24 85 79.48 85 89 C151 89 217 89 285 89 C285 105.83 285 122.66 285 140 C219 140 153 140 85 140 C85 145.28 85 150.56 85 156 C56.95 156 28.9 156 0 156 C0 104.52 0 53.04 0 0 Z " fill="#A6B8D3" transform="translate(352,384)"/>
<path d="M0 0 C102.3 0 204.6 0 310 0 C310 26.73 310 53.46 310 81 C273.04 81 236.08 81 198 81 C198 105.75 198 130.5 198 156 C168.63 156 139.26 156 109 156 C109 131.25 109 106.5 109 81 C73.03 81 37.06 81 0 81 C0 54.27 0 27.54 0 0 Z " fill="#99B3D1" transform="translate(6,384)"/>
<path d="M0 0 C0.33 0 0.66 0 1 0 C1 7.59 1 15.18 1 23 C67.99 23 134.98 23 204 23 C204 41.81 204 60.62 204 80 C108.96 80 13.92 80 -84 80 C-84 12 -84 12 -83 11 C-83 8.96994518 -83.00357588 6.93935573 -83.0625 4.91015625 C-83 3 -83 3 -82 1 C-80.98744644 1.00222061 -79.97489288 1.00444122 -78.93165588 1.00672913 C-69.4106235 1.02696054 -59.88959545 1.04197214 -50.36854649 1.05181217 C-45.47314626 1.057041 -40.57776332 1.06413864 -35.68237305 1.07543945 C-30.96212022 1.08626834 -26.24188408 1.09227684 -21.5216198 1.09487724 C-19.71661046 1.09673149 -17.91160208 1.10035209 -16.10659981 1.10573006 C-13.58740356 1.11294052 -11.0682771 1.11399094 -8.54907227 1.11352539 C-7.41835045 1.1189183 -7.41835045 1.1189183 -6.26478577 1.12442017 C-2.84445769 1.42559536 -2.84445769 1.42559536 0 0 Z " fill="#2B78A4" transform="translate(436,542)"/>
<path d="M0 0 C102.96 0 205.92 0 312 0 C296.97601093 15.02398907 275.66570097 22.24071778 254.64819789 22.37463057 C252.33644901 22.37321785 250.02506539 22.3570819 247.71337891 22.34057617 C246.0266064 22.3397278 244.33983278 22.34020913 242.65306091 22.34190369 C238.118811 22.34275688 233.58480402 22.32524195 229.05061007 22.30418181 C224.29542079 22.28530103 219.54022464 22.28365566 214.78500366 22.28010559 C205.80038587 22.27081838 196.81587889 22.24625006 187.83130968 22.21605712 C177.59419425 22.18240905 167.35707325 22.16600105 157.1199162 22.15097082 C136.07986874 22.11969716 115.03997298 22.06472714 94 22 C94 40.48 94 58.96 94 78 C62.98 78 31.96 78 0 78 C0 52.26 0 26.52 0 0 Z " fill="#1C678E" transform="translate(675,543)"/>
<path d="M0 0 C17.96792315 -0.09039765 35.93565134 -0.16403849 53.90373898 -0.20724869 C62.24718827 -0.22784785 70.59048594 -0.25591761 78.93383789 -0.30175781 C86.20843392 -0.34170689 93.4829201 -0.36745204 100.75762278 -0.37635398 C104.60728565 -0.38155514 108.45663433 -0.39372391 112.30619621 -0.42292023 C115.93499039 -0.4502173 119.56334312 -0.45841649 123.19223022 -0.45243073 C125.14791008 -0.45404335 127.10354266 -0.47549103 129.05909729 -0.49768066 C138.80933738 -0.45232028 146.25011395 1.57568739 153.4921875 8.3125 C158.01758085 13.37718893 159.75188432 18.63670953 159.44921875 25.41015625 C158.42601103 31.30917122 155.65126261 36.8312941 151.25 40.9375 C142.92724015 46.21925145 134.88873292 46.42287205 125.21850586 46.34057617 C123.84773782 46.33972844 122.47696842 46.3402079 121.10620117 46.34190369 C117.41044952 46.34275936 113.71499396 46.32520375 110.01931071 46.30418181 C106.14761937 46.28534296 102.27592017 46.28365892 98.40419006 46.28010559 C91.08394436 46.27080619 83.76383414 46.24622115 76.44364792 46.21605712 C68.10504387 46.18244729 59.76643312 46.1660106 51.42777812 46.15097082 C34.28509376 46.11966951 17.14259585 46.06468403 0 46 C0 30.82 0 15.64 0 0 Z " fill="#1A1919" transform="translate(769,450)"/>
<path d="M0 0 C29.04 0 58.08 0 88 0 C88 26.07 88 52.14 88 79 C58.96 79 29.92 79 0 79 C0 52.93 0 26.86 0 0 Z " fill="#246F97" transform="translate(115,542)"/>
<path d="M0 0 C0.33 0 0.66 0 1 0 C1.02505615 0.87213135 1.0501123 1.7442627 1.07592773 2.64282227 C1.17157363 5.90627763 1.27077356 9.16958608 1.37231445 12.43286133 C1.41538658 13.84004557 1.45707864 15.24727282 1.49731445 16.65454102 C1.5556957 18.68779408 1.61918685 20.72083617 1.68359375 22.75390625 C1.72025146 23.97408447 1.75690918 25.1942627 1.79467773 26.45141602 C2.0008218 30.01420318 2.46609265 33.47328001 3 37 C3 37.66 3 38.32 3 39 C8.15950168 39.02480163 13.31896831 39.04290809 18.47851562 39.05493164 C20.23210251 39.05994651 21.98568524 39.06676002 23.73925781 39.07543945 C26.2662865 39.08763 28.79325968 39.09325688 31.3203125 39.09765625 C32.09867462 39.10281754 32.87703674 39.10797882 33.6789856 39.11329651 C34.41930023 39.11337204 35.15961487 39.11344757 35.92236328 39.11352539 C36.88832932 39.11685631 36.88832932 39.11685631 37.87380981 39.12025452 C40.06936115 39.04744438 40.06936115 39.04744438 42.45595169 38.49831772 C47.26329431 37.82237208 51.98255217 37.87981204 56.83096313 37.90666199 C57.9235759 37.90862983 59.01618867 37.91059766 60.14191091 37.91262513 C63.80378282 37.92034555 67.46559154 37.93521103 71.12744141 37.94995117 C73.75234354 37.95678126 76.37724702 37.96311157 79.00215149 37.96897888 C84.6545882 37.98208696 90.30700794 37.99842564 95.95943069 38.01653099 C104.89151079 38.04475392 113.82359547 38.061405 122.75570679 38.07600403 C125.81259352 38.08112799 128.86948016 38.086302 131.92636681 38.09147358 C133.07214939 38.09340263 133.07214939 38.09340263 134.2410791 38.09537065 C142.92992828 38.11009487 151.6187736 38.12657935 160.30761719 38.14428711 C161.49869503 38.14670922 161.49869503 38.14670922 162.71383505 38.14918027 C175.59533555 38.17574313 188.47678417 38.2135061 201.3582458 38.25447568 C214.58410957 38.29618304 227.80994586 38.32262844 241.035869 38.33568364 C249.19432535 38.34428708 257.35255979 38.36534944 265.5109378 38.40231238 C271.75670148 38.42941555 278.0023255 38.43570244 284.24814415 38.43413734 C286.81367737 38.43684286 289.37921367 38.44645628 291.94469261 38.46336365 C295.43773575 38.48539253 298.92992255 38.48298446 302.42300415 38.47428894 C303.44614326 38.48662243 304.46928237 38.49895591 305.5234257 38.51166314 C310.92647705 38.5610225 310.92647705 38.5610225 315.55681419 36.08388233 C316.03306551 35.39620116 316.50931683 34.70851999 317 34 C317.82564453 33.10087891 317.82564453 33.10087891 318.66796875 32.18359375 C319.16941406 31.60738281 319.67085937 31.03117188 320.1875 30.4375 C320.69667969 29.85871094 321.20585938 29.27992188 321.73046875 28.68359375 C323.20618721 26.91258361 323.20618721 26.91258361 324 24 C324.99 24 325.98 24 327 24 C326.67 22.68 326.34 21.36 326 20 C326.99 20 327.98 20 329 20 C329.33 18.35 329.66 16.7 330 15 C330.66 15 331.32 15 332 15 C332.33 14.01 332.66 13.02 333 12 C334 15 334 15 333.03125 17.1640625 C329.36611127 23.05446404 325.56315437 28.76082277 321 34 C320.57861313 34.56969279 320.15722626 35.13938558 319.72307009 35.72634178 C317.19453295 38.77185258 315.20645578 40.71315668 311.2873975 41.64494026 C307.90693103 41.88335807 304.58817582 41.89910763 301.19960022 41.84178162 C299.90730025 41.84776259 298.61500028 41.85374356 297.28353971 41.85990578 C293.70730557 41.87552178 290.13254528 41.84761346 286.55649889 41.81245935 C282.69632834 41.78218399 278.83623856 41.79246292 274.97598267 41.79777527 C268.2915133 41.80144289 261.60752282 41.77951117 254.9231739 41.7401104 C245.25885536 41.68318138 235.59476798 41.6649863 225.93029993 41.65619446 C210.24987017 41.6408802 194.56969555 41.59431245 178.8894043 41.52807617 C163.65894852 41.46380704 148.42856208 41.41426593 133.19799805 41.38452148 C132.2589335 41.38268242 131.31986896 41.38084336 130.35234792 41.37894856 C125.64126035 41.36981319 120.93017229 41.36096726 116.21908391 41.35226524 C77.14586856 41.2797173 38.07297085 41.1545134 -1 41 C-0.67 27.47 -0.34 13.94 0 0 Z " fill="#FDFEFC" transform="translate(676,500)"/>
<path d="M0 0 C0.33 0 0.66 0 1 0 C1.14347158 5.99566221 1.28585368 11.99134895 1.42724609 17.98706055 C1.47545239 20.02482799 1.52395133 22.06258854 1.57275391 24.1003418 C1.6430312 27.03692875 1.71224043 29.97353927 1.78125 32.91015625 C1.80312378 33.81459976 1.82499756 34.71904327 1.84753418 35.65089417 C1.90453724 38.10052058 1.95423451 40.55014077 2 43 C2.01603271 43.69696991 2.03206543 44.39393982 2.04858398 45.11203003 C2.1164056 49.7671888 2.1164056 49.7671888 1 52 C27.73 52 54.46 52 82 52 C82.33 47.05 82.66 42.1 83 37 C89.42378754 36.03717663 95.65592049 35.87769398 102.14501953 35.92211914 C103.23524792 35.92509192 104.3254763 35.92806469 105.44874191 35.93112755 C107.81132258 35.93768854 110.1738982 35.94632646 112.53646469 35.95681572 C118.96732152 35.98418972 125.39819524 35.99274043 131.82910156 36.00048828 C132.49520596 36.0013976 133.16131036 36.00230693 133.84759974 36.0032438 C148.58429928 36.02149093 163.31881061 35.89901263 178.0546875 35.74609375 C180.53891964 35.72119786 183.02315223 35.6963464 185.50738525 35.67153931 C195.526466 35.57019984 205.54548541 35.46376104 215.56445312 35.35180664 C221.84822277 35.28189868 228.13203089 35.21785043 234.41589737 35.15730476 C236.75589472 35.13361159 239.09587138 35.10775201 241.43581772 35.07946587 C255.00400573 34.9157694 268.4594889 35.07855727 282 36 C282 32.7 282 29.4 282 26 C282.33 26 282.66 26 283 26 C283 29.96 283 33.92 283 38 C217.33 38 151.66 38 84 38 C84 43.28 84 48.56 84 54 C55.95 54 27.9 54 -1 54 C-0.67 36.18 -0.34 18.36 0 0 Z " fill="#F6EDF0" transform="translate(353,486)"/>
<path d="M0 0 C94.38 0 188.76 0 286 0 C286 20.13 286 40.26 286 61 C285.67 61 285.34 61 285 61 C285 41.2 285 21.4 285 1 C203.49 1 121.98 1 38 1 C38 1.66 38 2.32 38 3 C25.79 3 13.58 3 1 3 C0.67 3.66 0.34 4.32 0 5 C0 3.35 0 1.7 0 0 Z " fill="#8FADC8" transform="translate(354,384)"/>
<path d="M0 0 C102.96 0 205.92 0 312 0 C305.38461538 6.61538462 305.38461538 6.61538462 303 8 C300.75 7.6875 300.75 7.6875 299 7 C299.825 6.54625 300.65 6.0925 301.5 5.625 C302.325 5.08875 303.15 4.5525 304 4 C304 3.34 304 2.68 304 2 C303.14254119 2.00056958 303.14254119 2.00056958 302.26775998 2.00115067 C268.27138788 2.02360395 234.27501748 2.04072434 200.27863957 2.05106533 C196.18258587 2.05231581 192.08653219 2.05361015 187.99047852 2.05493164 C187.17514183 2.05519395 186.35980515 2.05545626 185.5197613 2.05572652 C172.37538461 2.06005957 159.23101236 2.06793392 146.08663829 2.0771528 C132.56590982 2.08655545 119.04518364 2.0920695 105.52445203 2.09408849 C97.20379533 2.09545009 88.88315119 2.09972574 80.56249837 2.10791647 C74.83094577 2.1132658 69.09939951 2.11478603 63.3678446 2.11350138 C60.07747842 2.11287056 56.78715116 2.11430335 53.49678612 2.11920547 C36.30765364 2.14352619 19.17299521 1.75097799 2 1 C2 5.29 2 9.58 2 14 C1.34 14 0.68 14 0 14 C0 9.38 0 4.76 0 0 Z " fill="#0B5771" transform="translate(675,543)"/>
<path d="M0 0 C1 3 1 3 0.03125 5.1640625 C-3.6344303 11.05533442 -7.45367581 16.74564171 -12 22 C-12.7991086 23.02055796 -13.5982172 24.04111591 -14.42154121 25.09259987 C-17.98612714 28.6020192 -21.11210406 28.71462596 -25.97209442 28.77448785 C-27.02462815 28.7570108 -28.07716188 28.73953376 -29.16159058 28.7215271 C-30.28969402 28.72665365 -31.41779747 28.7317802 -32.58008587 28.7370621 C-36.36240213 28.74694978 -40.14312369 28.71393568 -43.92529297 28.68115234 C-46.63551342 28.67611885 -49.34570266 28.68014539 -52.05592346 28.68380737 C-57.89187012 28.68695124 -63.72741382 28.66815056 -69.56325912 28.63438034 C-78.00080577 28.58558671 -86.43815787 28.56998852 -94.87583031 28.56245239 C-108.56576812 28.54932547 -122.25549124 28.50940913 -135.9453125 28.45263672 C-149.2425021 28.39754997 -162.53963337 28.35508563 -175.83691406 28.32958984 C-177.06668523 28.32722533 -177.06668523 28.32722533 -178.32130025 28.32481305 C-182.43429567 28.31698274 -186.54729151 28.30940052 -190.66028762 28.30194163 C-224.77367958 28.2397564 -258.88681662 28.1340908 -293 28 C-293 27.67 -293 27.34 -293 27 C-287.37515681 25.8034736 -281.88825305 25.87498962 -276.16903687 25.90666199 C-275.0764241 25.90862983 -273.98381133 25.91059766 -272.85808909 25.91262513 C-269.19621718 25.92034555 -265.53440846 25.93521103 -261.87255859 25.94995117 C-259.24765646 25.95678126 -256.62275298 25.96311157 -253.99784851 25.96897888 C-248.3454118 25.98208696 -242.69299206 25.99842564 -237.04056931 26.01653099 C-228.10848921 26.04475392 -219.17640453 26.061405 -210.24429321 26.07600403 C-207.18740648 26.08112799 -204.13051984 26.086302 -201.07363319 26.09147358 C-199.92785061 26.09340263 -199.92785061 26.09340263 -198.7589209 26.09537065 C-190.07007172 26.11009487 -181.3812264 26.12657935 -172.69238281 26.14428711 C-171.50130497 26.14670922 -171.50130497 26.14670922 -170.28616495 26.14918027 C-157.40466445 26.17574313 -144.52321583 26.2135061 -131.6417542 26.25447568 C-118.41589043 26.29618304 -105.19005414 26.32262844 -91.964131 26.33568364 C-83.80567465 26.34428708 -75.64744021 26.36534944 -67.4890622 26.40231238 C-61.24329852 26.42941555 -54.9976745 26.43570244 -48.75185585 26.43413734 C-46.18632263 26.43684286 -43.62078633 26.44645628 -41.05530739 26.46336365 C-37.56226425 26.48539253 -34.07007745 26.48298446 -30.57699585 26.47428894 C-29.55385674 26.48662243 -28.53071763 26.49895591 -27.4765743 26.51166314 C-22.07352295 26.5610225 -22.07352295 26.5610225 -17.44318581 24.08388233 C-16.72880883 23.05236058 -16.72880883 23.05236058 -16 22 C-15.17435547 21.10087891 -15.17435547 21.10087891 -14.33203125 20.18359375 C-13.83058594 19.60738281 -13.32914063 19.03117188 -12.8125 18.4375 C-12.30332031 17.85871094 -11.79414062 17.27992188 -11.26953125 16.68359375 C-9.79381279 14.91258361 -9.79381279 14.91258361 -9 12 C-8.01 12 -7.02 12 -6 12 C-6.33 10.68 -6.66 9.36 -7 8 C-6.01 8 -5.02 8 -4 8 C-3.67 6.35 -3.34 4.7 -3 3 C-2.34 3 -1.68 3 -1 3 C-0.67 2.01 -0.34 1.02 0 0 Z " fill="#EDDCD7" transform="translate(1009,512)"/>
<path d="M0 0 C0.33 0 0.66 0 1 0 C1.33 24.42 1.66 48.84 2 74 C-27.37 74 -56.74 74 -87 74 C-86.67 57.83 -86.34 41.66 -86 25 C-85.67 25 -85.34 25 -85 25 C-84.85657249 29.46570721 -84.71418842 33.93144613 -84.57275391 38.3972168 C-84.52453538 39.91512949 -84.47603614 41.4330333 -84.42724609 42.95092773 C-84.35700128 45.13783505 -84.28777964 47.32477278 -84.21875 49.51171875 C-84.1559082 51.48338013 -84.1559082 51.48338013 -84.09179688 53.49487305 C-84.03639675 55.61024438 -84.01249005 57.72723295 -84.04882812 59.84301758 C-84.15237893 62.05095621 -84.15237893 62.05095621 -83 64 C-83 65.66666667 -83 67.33333333 -83 69 C-82.67 69.66 -82.34 70.32 -82 71 C-55.27 71.33 -28.54 71.66 -1 72 C-1 65.07 -1 58.14 -1 51 C-0.94278564 46.59616839 -0.87686845 42.1957096 -0.78125 37.79296875 C-0.75905396 36.69068436 -0.73685791 35.58839996 -0.71398926 34.45271301 C-0.64464353 31.03093116 -0.57239419 27.60921856 -0.5 24.1875 C-0.45162751 21.82617587 -0.40344937 19.46484775 -0.35546875 17.10351562 C-0.23921063 11.402296 -0.12058805 5.70112961 0 0 Z " fill="#F0E9ED" transform="translate(202,466)"/>
<path d="M0 0 C0.33 0 0.66 0 1 0 C1 9.57 1 19.14 1 29 C-93.71 29 -188.42 29 -286 29 C-286 28.67 -286 28.34 -286 28 C-144.925 27.505 -144.925 27.505 -1 27 C-0.67 18.09 -0.34 9.18 0 0 Z " fill="#4AB1EE" transform="translate(639,592)"/>
<path d="M0 0 C0.33 0 0.66 0 1 0 C1.70744994 7.8577475 2.07304388 15.62243315 2.03125 23.5078125 C2.02899414 24.32967041 2.02673828 25.15152832 2.02441406 25.99829102 C2.0185942 27.99886876 2.00962967 29.99943696 2 32 C3.47005997 31.99666908 3.47005997 31.99666908 4.96981812 31.99327087 C14.23787201 31.97293656 23.50592134 31.95797847 32.77399254 31.94818783 C37.53797719 31.94298505 42.30194374 31.93593506 47.06591797 31.92456055 C51.66950278 31.91363865 56.27307025 31.90770357 60.87666702 31.90512276 C62.62678932 31.9032852 64.37691075 31.8996971 66.1270256 31.89426994 C74.82058547 31.86840048 83.36042551 31.89029465 92 33 C91.835 31.824375 91.67 30.64875 91.5 29.4375 C90.41805057 19.65358591 90.63311718 9.73904008 92 0 C92.33 0 92.66 0 93 0 C93 11.55 93 23.1 93 35 C61.98 35 30.96 35 -1 35 C-1 1 -1 1 0 0 Z " fill="#459ACE" transform="translate(676,586)"/>
<path d="M0 0 C0.33 0 0.66 0 1 0 C1 5.94 1 11.88 1 18 C0.34 18 -0.32 18 -1 18 C-1.33 18.66 -1.66 19.32 -2 20 C-28.73 19.67 -55.46 19.34 -83 19 C-83 22.63 -83 26.26 -83 30 C-83.66 30 -84.32 30 -85 30 C-85 25.38 -85 20.76 -85 16 C-56.95 16 -28.9 16 0 16 C0 10.72 0 5.44 0 0 Z " fill="#1B465F" transform="translate(437,524)"/>
<path d="M0 0 C0.33 0 0.66 0 1 0 C1 7.59 1 15.18 1 23 C67.99 23 134.98 23 204 23 C204 23.99 204 24.98 204 26 C203.34 26 202.68 26 202 26 C202 25.34 202 24.68 202 24 C200.6696875 24.5259375 200.6696875 24.5259375 199.3125 25.0625 C195.72109038 26.07893669 194.55168634 25.72906008 191 25 C188.5327596 24.91309536 186.06332568 24.88231249 183.59455872 24.88647461 C182.85821927 24.88632575 182.12187983 24.88617689 181.36322707 24.88602352 C178.90073207 24.88671688 176.43831208 24.89455422 173.97583008 24.90234375 C172.20808962 24.90426337 170.44034862 24.90572696 168.67260742 24.9067688 C164.86724147 24.90992901 161.06189772 24.9161967 157.2565403 24.92483521 C151.23391003 24.93836566 145.21128714 24.94425386 139.18864441 24.94897461 C125.31045473 24.96101906 111.43228422 24.98304153 97.55410767 25.00520325 C84.84690654 25.02540216 72.13971199 25.04347335 59.43249816 25.05341816 C53.45161272 25.05838777 47.47076146 25.06822919 41.48988974 25.08184814 C37.75935085 25.08933585 34.02881658 25.0926291 30.29827118 25.0948143 C28.57541563 25.09667803 26.85256089 25.10026231 25.12971306 25.10574722 C22.76657386 25.11303003 20.40350813 25.11399812 18.0403595 25.11352539 C16.72131528 25.115746 15.40227106 25.11796661 14.04325581 25.12025452 C9.34937567 24.98064913 4.67265062 24.46726506 0 24 C0 16.08 0 8.16 0 0 Z " fill="#106E9C" transform="translate(436,542)"/>
<path d="M0 0 C0.33 0 0.66 0 1 0 C1 12.54 1 25.08 1 38 C-27.71 38 -56.42 38 -86 38 C-86 11 -86 11 -84 7 C-83.80347668 11.43714898 -83.61932078 15.87472615 -83.4375 20.3125 C-83.38142578 21.57513672 -83.32535156 22.83777344 -83.26757812 24.13867188 C-83.21923828 25.34716797 -83.17089844 26.55566406 -83.12109375 27.80078125 C-83.0739624 28.91622314 -83.02683105 30.03166504 -82.97827148 31.1809082 C-83 34 -83 34 -84 37 C-83.18416695 36.95554245 -83.18416695 36.95554245 -82.35185242 36.91018677 C-66.74931317 36.08575226 -51.18172113 35.84288972 -35.55883789 35.86962891 C-31.75077507 35.87508849 -27.94282534 35.86959362 -24.13476562 35.86328125 C-21.70052057 35.8639405 -19.26627559 35.86521847 -16.83203125 35.8671875 C-15.699897 35.86516327 -14.56776276 35.86313904 -13.40132141 35.86105347 C-11.8313868 35.86578171 -11.8313868 35.86578171 -10.22973633 35.87060547 C-9.3131575 35.87140106 -8.39657867 35.87219666 -7.45222473 35.87301636 C-5.15978621 35.99172578 -3.19603138 36.35435464 -1 37 C-1.00523682 36.30551758 -1.01047363 35.61103516 -1.01586914 34.89550781 C-1.03694428 31.68034814 -1.04975571 28.46520308 -1.0625 25.25 C-1.07087891 24.15816406 -1.07925781 23.06632813 -1.08789062 21.94140625 C-1.10968394 14.5752663 -0.7350759 7.32921225 0 0 Z " fill="#419ED6" transform="translate(201,582)"/>
<path d="M0 0 C29.7 0.495 29.7 0.495 60 1 C60 1.33 60 1.66 60 2 C47.86921592 3.15425933 35.79776489 3.11594239 23.625 3.0625 C21.61718862 3.05747236 19.60937602 3.0529117 17.6015625 3.04882812 C12.73434414 3.03792865 7.86718599 3.02073451 3 3 C3.00222061 3.64463196 3.00444122 4.28926392 3.00672913 4.95343018 C3.02915292 11.76891516 3.04405814 18.58438938 3.05493164 25.39990234 C3.05990683 27.93083116 3.06668938 30.4617572 3.07543945 32.99267578 C3.12606085 48.03020832 2.96612749 62.99071382 2 78 C1.01 78.495 1.01 78.495 0 79 C0 52.93 0 26.86 0 0 Z " fill="#96BBDA" transform="translate(675,385)"/>
<path d="M0 0 C48.18 0 96.36 0 146 0 C139.38461538 6.61538462 139.38461538 6.61538462 137 8 C134.75 7.6875 134.75 7.6875 133 7 C133.825 6.54625 134.65 6.0925 135.5 5.625 C136.325 5.08875 137.15 4.5525 138 4 C138 3.34 138 2.68 138 2 C69.69 1.505 69.69 1.505 0 1 C0 0.67 0 0.34 0 0 Z " fill="#125C76" transform="translate(841,543)"/>
<path d="M0 0 C0.33 0 0.66 0 1 0 C1.02505615 0.87213135 1.0501123 1.7442627 1.07592773 2.64282227 C1.17157363 5.90627763 1.27077356 9.16958608 1.37231445 12.43286133 C1.41538658 13.84004557 1.45707864 15.24727282 1.49731445 16.65454102 C1.5556957 18.68779408 1.61918685 20.72083617 1.68359375 22.75390625 C1.72025146 23.97408447 1.75690918 25.1942627 1.79467773 26.45141602 C2.0008218 30.01420318 2.46609265 33.47328001 3 37 C3 37.66 3 38.32 3 39 C4.30142944 38.99214478 4.30142944 38.99214478 5.62915039 38.98413086 C26.44446464 38.87616619 47.20026432 39.17206218 68 40 C68 40.33 68 40.66 68 41 C45.23 41 22.46 41 -1 41 C-0.67 27.47 -0.34 13.94 0 0 Z " fill="#F8F2F2" transform="translate(676,500)"/>
<path d="M0 0 C0.33 0 0.66 0 1 0 C4.61290323 28.16129032 4.61290323 28.16129032 2 36 C4.64 36 7.28 36 10 36 C10 36.33 10 36.66 10 37 C5.05 37.495 5.05 37.495 0 38 C0 25.46 0 12.92 0 0 Z " fill="#3A8FC2" transform="translate(352,583)"/>
<path d="M0 0 C0.33 0 0.66 0 1 0 C1 9.57 1 19.14 1 29 C-12.2 29 -25.4 29 -39 29 C-39 28.67 -39 28.34 -39 28 C-26.46 27.67 -13.92 27.34 -1 27 C-0.67 18.09 -0.34 9.18 0 0 Z " fill="#45A6DF" transform="translate(639,592)"/>
<path d="M0 0 C1 3 1 3 0.03125 5.1640625 C-5.41387318 13.91515332 -10.89610451 21.54996073 -19 28 C-18.68675781 27.37996094 -18.37351562 26.75992188 -18.05078125 26.12109375 C-17.38996622 24.78718089 -16.76319043 23.43530026 -16.1875 22.0625 C-14.56924243 19.25184212 -12.28515498 17.28515498 -10 15 C-9.67 14.01 -9.34 13.02 -9 12 C-8.01 12 -7.02 12 -6 12 C-6.33 10.68 -6.66 9.36 -7 8 C-6.01 8 -5.02 8 -4 8 C-3.67 6.35 -3.34 4.7 -3 3 C-2.34 3 -1.68 3 -1 3 C-0.67 2.01 -0.34 1.02 0 0 Z " fill="#F1E9EB" transform="translate(1009,512)"/>
<path d="M0 0 C0.33 0 0.66 0 1 0 C2.24840764 15.67197452 2.24840764 15.67197452 2 23 C1.67 23.33 1.34 23.66 1 24 C0.76636119 25.84891946 0.58696365 27.70488031 0.4375 29.5625 C0.35371094 30.57441406 0.26992188 31.58632813 0.18359375 32.62890625 C0.09271484 33.80259766 0.09271484 33.80259766 0 35 C-0.33 35 -0.66 35 -1 35 C-1.0246519 30.17619198 -1.04283693 25.35242033 -1.05493164 20.52856445 C-1.05997174 18.88630536 -1.06680378 17.24405077 -1.07543945 15.60180664 C-1.08751926 13.24624521 -1.09323139 10.89074291 -1.09765625 8.53515625 C-1.10281754 7.79660904 -1.10797882 7.05806183 -1.11329651 6.2971344 C-1.1134925 4.53101912 -1.06194719 2.76502854 -1 1 C-0.67 0.67 -0.34 0.34 0 0 Z " fill="#4093C5" transform="translate(676,586)"/>
<path d="M0 0 C4.95 0 9.9 0 15 0 C11.32561113 2.44959258 9.33163807 2.07735068 5 2 C4.01 2.33 3.02 2.66 2 3 C2 10.59 2 18.18 2 26 C-0.23413013 22.64880481 -0.23847762 21.5822245 -0.1953125 17.67578125 C-0.18886719 16.64775391 -0.18242188 15.61972656 -0.17578125 14.56054688 C-0.15064453 12.95276367 -0.15064453 12.95276367 -0.125 11.3125 C-0.11597656 10.22904297 -0.10695313 9.14558594 -0.09765625 8.02929688 C-0.07407452 5.35277052 -0.03820336 2.67635759 0 0 Z " fill="#085274" transform="translate(115,542)"/>
<path d="M0 0 C0.33 0 0.66 0 1 0 C1.02495763 4.65901308 1.04298042 9.31798614 1.05493164 13.97705078 C1.05992073 15.55778686 1.06671438 17.13851841 1.07543945 18.71923828 C1.1211381 27.21918732 1.07516124 35.55109515 0 44 C-2.18298242 40.72552637 -2.21827419 40.05010502 -2.01171875 36.30859375 C-1.96523193 35.37152588 -1.91874512 34.43445801 -1.87084961 33.46899414 C-1.81034424 32.46860107 -1.74983887 31.46820801 -1.6875 30.4375 C-1.63408447 29.41712646 -1.58066895 28.39675293 -1.52563477 27.34545898 C-1.36036852 24.22966851 -1.18083432 21.11492086 -1 18 C-0.90007119 16.15890658 -0.80105408 14.31776337 -0.703125 12.4765625 C-0.47992563 8.31701099 -0.2439999 4.15838127 0 0 Z " fill="#D7D0E8" transform="translate(635,478)"/>
<path d="M0 0 C0.33 0 0.66 0 1 0 C1.2258868 4.41595304 1.42767834 8.83268565 1.625 13.25 C1.68945312 14.50425781 1.75390625 15.75851562 1.8203125 17.05078125 C1.871875 18.25605469 1.9234375 19.46132813 1.9765625 20.703125 C2.02893066 21.81333008 2.08129883 22.92353516 2.13525391 24.06738281 C2.00051254 26.98888697 1.52929484 28.54686494 0 31 C-0.33 31 -0.66 31 -1 31 C-1.02902168 26.58334712 -1.04680608 22.16671877 -1.0625 17.75 C-1.07087891 16.49574219 -1.07925781 15.24148438 -1.08789062 13.94921875 C-1.09111328 12.74394531 -1.09433594 11.53867187 -1.09765625 10.296875 C-1.10289307 9.18666992 -1.10812988 8.07646484 -1.11352539 6.93261719 C-1.01658493 4.42842621 -0.73230276 2.3818844 0 0 Z " fill="#3A92C7" transform="translate(116,589)"/>
<path d="M0 0 C1.77669223 3.06156654 2.24050818 5.24036215 2.1953125 8.765625 C2.18886719 9.65507812 2.18242188 10.54453125 2.17578125 11.4609375 C2.15902344 12.38132812 2.14226563 13.30171875 2.125 14.25 C2.11597656 15.18585938 2.10695313 16.12171875 2.09765625 17.0859375 C2.07413636 19.39088657 2.04126853 21.6953116 2 24 C-0.03003376 22.3391242 -0.92230791 21.47094179 -1.35644531 18.83935547 C-1.34709961 18.02354004 -1.33775391 17.20772461 -1.328125 16.3671875 C-1.32296875 15.47902344 -1.3178125 14.59085937 -1.3125 13.67578125 C-1.291875 12.75152344 -1.27125 11.82726562 -1.25 10.875 C-1.24484375 9.94300781 -1.2396875 9.01101563 -1.234375 8.05078125 C-1.15406388 1.15406388 -1.15406388 1.15406388 0 0 Z " fill="#A2B4D5" transform="translate(676,463)"/>
<path d="M0 0 C4.89167203 0.41928617 6.76624032 2.44286435 10 6 C10.928125 6.886875 11.85625 7.77375 12.8125 8.6875 C15 11 15 11 15 13 C12 12 12 12 9.8125 9.1875 C6.88543009 5.46132205 3.29730161 3.8127575 -1 2 C-0.67 1.34 -0.34 0.68 0 0 Z " fill="#9BB5D6" transform="translate(912,450)"/>
<path d="M0 0 C1 3 1 3 -0.21484375 5.48046875 C-0.78332031 6.37378906 -1.35179687 7.26710938 -1.9375 8.1875 C-2.50339844 9.08855469 -3.06929687 9.98960937 -3.65234375 10.91796875 C-4.09707031 11.60503906 -4.54179688 12.29210937 -5 13 C-7 10 -7 10 -7 8 C-6.01 8 -5.02 8 -4 8 C-3.67 6.35 -3.34 4.7 -3 3 C-2.34 3 -1.68 3 -1 3 C-0.67 2.01 -0.34 1.02 0 0 Z " fill="#E5DCE5" transform="translate(1009,512)"/>
<path d="M0 0 C0.33 0 0.66 0 1 0 C1.33 4.62 1.66 9.24 2 14 C1.01 14 0.02 14 -1 14 C-1.02685938 11.85423363 -1.04633088 9.70837355 -1.0625 7.5625 C-1.07410156 6.36753906 -1.08570313 5.17257812 -1.09765625 3.94140625 C-1 1 -1 1 0 0 Z " fill="#3188BA" transform="translate(676,586)"/>
<path d="M0 0 C3.96 0 7.92 0 12 0 C12 0.99 12 1.98 12 3 C11.34 3 10.68 3 10 3 C10 2.34 10 1.68 10 1 C9.0925 1.391875 8.185 1.78375 7.25 2.1875 C6.1775 2.455625 5.105 2.72375 4 3 C2.68 2.01 1.36 1.02 0 0 Z " fill="#126B96" transform="translate(628,565)"/>
<path d="M0 0 C0 3 0 3 -2.3125 5.625 C-5 8 -5 8 -8 9 C-8.66 8.34 -9.32 7.68 -10 7 C-8.906875 6.401875 -7.81375 5.80375 -6.6875 5.1875 C-4.08925871 3.70955303 -1.95650507 2.30177067 0 0 Z " fill="#BDC5E2" transform="translate(924,486)"/>
<path d="M0 0 C3.37503669 1.1858237 5.64722731 2.27573689 8 5 C7.01 5.495 7.01 5.495 6 6 C5.01 5.67 4.02 5.34 3 5 C3 4.34 3 3.68 3 3 C1.68 2.34 0.36 1.68 -1 1 C-0.67 0.67 -0.34 0.34 0 0 Z " fill="#90B9D5" transform="translate(973,400)"/>
<path d="M0 0 C2.10852713 3.47286822 2.10852713 3.47286822 1.5625 6.125 C1.376875 6.74375 1.19125 7.3625 1 8 C1.33 8.66 1.66 9.32 2 10 C1.01 10 0.02 10 -1 10 C-1.33 8.68 -1.66 7.36 -2 6 C-1.34 6 -0.68 6 0 6 C0 4.02 0 2.04 0 0 Z " fill="#F0E1DF" transform="translate(677,530)"/>
</svg>
